<?xml version="1.0" encoding="UTF-8"?>
<svg width="96px" height="90px" viewBox="0 0 96 90" version="1.1" xmlns="http://www.w3.org/2000/svg" xmlns:xlink="http://www.w3.org/1999/xlink">
    <!-- Generator: Sketch 56.3 (81716) - https://sketch.com -->
    <title>icon_donar</title>
    <desc>Created with Sketch.</desc>
    <g id="Diseño" stroke="none" stroke-width="1" fill="none" fill-rule="evenodd">
        <g id="Home" transform="translate(-390.000000, -2875.000000)">
            <g id="Sección-4" transform="translate(320.000000, 2654.000000)">
                <g id="Donar" transform="translate(0.000000, 221.000000)">
                    <g id="icon_donar" transform="translate(72.000000, 0.000000)">
                        <g id="Group-4">
                            <circle id="Oval" fill="#7EDDD3" cx="49" cy="45" r="45"></circle>
                            <g id="Donation-icon" transform="translate(0.000000, 13.000000)" stroke="#1D3C34" stroke-linecap="round" stroke-linejoin="round" stroke-width="3.5">
                                <g id="Hand" transform="translate(0.000000, 39.000000)">
                                    <path d="M0.120215979,20.1846149 L10.5536201,35.0374574 L15.9084719,31.5091105 C20.2772506,28.6304935 25.3942861,27.0962268 30.6261752,27.0962268 L45.8923229,27.0962268 C51.0104545,27.0962268 55.9865449,25.4130308 60.053716,22.3060403 L79.1112231,7.74764333 C80.9862396,6.31528207 81.3450826,3.63412263 79.9127213,1.75910612 C79.8941856,1.73484211 79.8753902,1.71077752 79.8563386,1.68691648 C78.3391442,-0.213275134 75.5864956,-0.563715276 73.6415872,0.895715468 L57.7154433,12.8464602" id="Path-2"></path>
                                    <path d="M66.8227925,6.10730736 L65.1822388,4.25388262 C63.3562977,2.19101547 60.2524468,1.87573712 58.0490023,3.52931333 L53.615407,6.8565076" id="Path-4"></path>
                                    <path d="M0.120215979,20.1846149 L18.3246937,6.03869949 C22.4759817,2.8129124 28.0187039,2.0102692 32.9145281,3.92594135 L37.9678902,5.90325604 C39.8459178,6.63810374 41.8448096,7.01525192 43.8614872,7.01525192 L52.8947248,7.01525192 C55.5571341,7.01525192 57.7154433,9.17356113 57.7154433,11.8359705 C57.7154433,14.5272456 55.5875098,16.736864 52.8981429,16.8381924 L29.2784316,17.728122" id="Path-3"></path>
                                </g>
                                <path d="M42.4047897,4.18946041 L42.6262341,3.96801605 C46.769682,-0.175431896 53.4932035,-0.169766911 57.6436395,3.98066915 C61.7940756,8.13110522 61.7997406,14.8546267 57.6562926,18.9980746 L42.6515403,34.002827 L42.5952103,33.9464969 L42.3484597,34.1932475 L27.3437074,19.1884951 C23.2002594,15.0450472 23.2059244,8.32152574 27.3563605,4.17108967 C31.5067965,0.0206536099 38.230318,0.0149886246 42.3737659,4.15843657 L42.4047897,4.18946041 Z" id="Combined-Shape"></path>
                            </g>
                        </g>
                    </g>
                </g>
            </g>
        </g>
    </g>
</svg>