<?xml version="1.0" encoding="UTF-8"?>
<svg width="103px" height="90px" viewBox="0 0 103 90" version="1.1" xmlns="http://www.w3.org/2000/svg" xmlns:xlink="http://www.w3.org/1999/xlink">
    <!-- Generator: Sketch 56.3 (81716) - https://sketch.com -->
    <title>icon_colabora</title>
    <desc>Created with Sketch.</desc>
    <g id="Diseño" stroke="none" stroke-width="1" fill="none" fill-rule="evenodd">
        <g id="Home" transform="translate(-667.000000, -2875.000000)">
            <g id="Sección-4" transform="translate(320.000000, 2654.000000)">
                <g id="Hazte-voluntario" transform="translate(283.000000, 221.000000)">
                    <g id="icon_colabora" transform="translate(66.000000, 0.000000)">
                        <circle id="Oval-Copy" fill="#7EDDD3" cx="56" cy="45" r="45"></circle>
                        <g id="Group-17-Copy" stroke-width="1" transform="translate(0.000000, 10.000000)">
                            <path d="M47.036441,65.2458449 C47.9221964,66.1028083 48.1282073,67.4460751 48.0525482,68.569829 C48.0069855,69.2448898 47.7896222,69.9078238 47.3966962,70.4939544 C47.2374358,70.732449 47.053931,70.9547744 46.8407477,71.1609307 C46.0089151,71.9653445 44.9095583,72.3614879 43.8185617,72.3457944 L43.7976614,72.3457944 L43.7475006,72.3457944 C42.7229671,72.3129806 41.7113917,71.9168371 40.9297198,71.1609307 L40.2404273,70.4939544 L6.12274816,37.5008625 C-2.04091605,29.6103313 -2.04091605,16.8124718 6.12274816,8.91789838 C14.2818143,1.02736721 27.7170209,1.6515249 35.8769231,9.54205607" id="Stroke-1" stroke="#1D3C34" stroke-width="3.5" stroke-linecap="round" stroke-linejoin="round"></path>
                            <path d="M31.1384615,49.4485981 L44.0192422,62.2480996 L47.036441,65.2458449 C47.9665109,66.1704606 49.2308053,66.5685015 50.4492011,66.4316749 C51.079262,66.3653348 51.6972223,66.1538756 52.2475867,65.7972973 C52.4941867,65.6397395 52.7232618,65.4568895 52.9360638,65.2458449 C53.1488659,65.0343857 53.3324598,64.8017805 53.4910181,64.5612975 C53.7835166,64.1139162 53.9750384,63.6205113 54.0751805,63.1101069 C54.2102328,62.4285003 54.171416,61.7184185 53.9585519,61.0514741" id="Stroke-3" stroke="#1D3C34" stroke-width="3.5" stroke-linecap="round" stroke-linejoin="round"></path>
                            <path d="M37.2307692,44.2149533 L50.1085649,57.0123833 L53.1251621,60.010058 C54.2181623,61.096202 55.7696386,61.4564536 57.1675943,61.0796197 C57.5722547,60.9714198 57.9685716,60.7973051 58.3356862,60.5614212 C58.5818198,60.4038888 58.8108492,60.2210684 59.0236088,60.010058 C59.2367856,59.7982184 59.4240975,59.5660655 59.5784525,59.3256214 C59.7536662,59.0565728 59.895506,58.7742582 59.9997999,58.4799215 C60.5300302,57.0165289 60.204216,55.3168379 59.0236088,54.1436365" id="Stroke-5" stroke="#1D3C34" stroke-width="3.5" stroke-linecap="round" stroke-linejoin="round"></path>
                            <path d="M43.3230769,38.3271028 L56.1933328,51.1234154 L59.2076492,54.1204137 C60.5417865,55.446886 62.5471617,55.6873092 64.1272806,54.8458283 C64.2273409,54.7919403 64.323232,54.7339072 64.4191231,54.6717288 C64.6609355,54.5142102 64.8944095,54.3314057 65.1070376,54.1204137 C65.3196658,53.9090072 65.5031097,53.6810198 65.6615385,53.4364515" id="Stroke-7" stroke="#1D3C34" stroke-width="3.5" stroke-linecap="round" stroke-linejoin="round"></path>
                            <path d="M81.8708743,37.5324727 L65.6615385,53.4364515 C66.6905425,51.8694419 66.3215264,49.7011739 64.9077971,48.3352497 L61.8810683,45.4100033 L57.6068083,41.2790538 L48.4014503,32.3859811 L44.120492,28.2489626 L33.5478732,38.463049 C31.9110116,40.0409827 29.2610541,40.0409827 27.6241925,38.463049 C25.9919358,36.8810692 25.9919358,34.3199614 27.6241925,32.7379817 L41.6698046,19.1637057 L44.1183989,16.8008511 L52.2692161,8.92332044 C60.4413837,1.02555985 73.6953576,1.02555985 81.8708743,8.92332044 C90.0430419,16.825127 90.0430419,29.6343075 81.8708743,37.5324727 Z" id="Stroke-9" stroke="#1D3C34" stroke-width="3.5" stroke-linecap="round" stroke-linejoin="round"></path>
                            <path d="M43.3230769,16.7383178 L35.8769231,9.54205607" id="Stroke-13" stroke="#1D3C34" stroke-width="3.5" stroke-linecap="round" stroke-linejoin="round"></path>
                            <path d="M64.9846154,22.6261682 C63.1959667,26.8550928 59.0089689,29.8224299 54.1296987,29.8224299 C51.0186426,29.8224299 48.1869977,28.2663219 46.0809879,26.2936579 L44,28.3747559" id="Stroke-15" stroke="#1D3C34" stroke-width="3.5" stroke-linecap="round" stroke-linejoin="round"></path>
                            <path d="" id="Path" stroke="#979797"></path>
                        </g>
                    </g>
                </g>
            </g>
        </g>
    </g>
</svg>