<?xml version="1.0" encoding="UTF-8"?>
<svg width="101px" height="90px" viewBox="0 0 101 90" version="1.1" xmlns="http://www.w3.org/2000/svg" xmlns:xlink="http://www.w3.org/1999/xlink">
    <!-- Generator: Sketch 56.3 (81716) - https://sketch.com -->
    <title>Group 6</title>
    <desc>Created with Sketch.</desc>
    <g id="Diseño" stroke="none" stroke-width="1" fill="none" fill-rule="evenodd">
        <g id="Home---Menú---Te-contamos" transform="translate(-954.000000, -2875.000000)">
            <g id="Group-6" transform="translate(954.000000, 2875.000000)">
                <circle id="Oval-Copy-2" fill="#7EDDD3" cx="56" cy="45" r="45"></circle>
                <g id="Megaphone-icon" transform="translate(0.000000, 13.000000)" stroke="#1D3C34" stroke-width="3.5">
                    <path d="M35.4112022,16.3865002 L35.4112022,44.483065 L67.401793,57.7400354 C67.5098102,57.784798 67.625589,57.8078375 67.7425137,57.8078375 C68.2340471,57.8078375 68.6325137,57.4093709 68.6325137,56.9178375 L68.6325137,3.95172774 C68.6325137,3.83480305 68.6094741,3.71902424 68.5647116,3.61100712 C68.3765368,3.15691973 67.8558804,2.94135499 67.401793,3.12952979 L35.4112022,16.3865002 Z" id="Rectangle"></path>
                    <path d="M14.3080994,44.3586957 L18.1872479,67.5070929 C18.2591034,67.9358826 18.6302399,68.25 19.0650086,68.25 L30.541986,68.25 C30.5912712,68.25 30.6404713,68.2459061 30.6890788,68.2377606 C31.1738526,68.1565235 31.5009837,67.6976809 31.4197466,67.2129071 L27.5898969,44.3586957 L14.3080994,44.3586957 Z" id="Rectangle"></path>
                    <path d="M69.0724044,22.2764461 L69.0724044,38.5931191 L75.6954769,36.1978182 C76.0479539,36.0703413 76.2827869,35.7356926 76.2827869,35.3608721 L76.2827869,25.5086931 C76.2827869,25.1338726 76.0479539,24.7992239 75.6954769,24.671747 L69.0724044,22.2764461 Z" id="Rectangle"></path>
                    <path d="M34.9713115,43.9021739 L34.9713115,16.9673913 L11.88,16.9673913 C6.28535548,16.9673913 1.75,21.5027468 1.75,27.0973913 L1.75,33.7721739 C1.75,39.3668184 6.28535548,43.9021739 11.88,43.9021739 L34.9713115,43.9021739 Z" id="Rectangle"></path>
                    <path d="M84.1530055,23.1953228 L90.6444776,16.7391304" id="Line-5" stroke-linecap="round" stroke-linejoin="round"></path>
                    <path d="M84.9180328,44.304992 L91.4095049,37.8487996" id="Line-5" stroke-linecap="round" stroke-linejoin="round" transform="translate(88.163769, 41.076896) scale(1, -1) translate(-88.163769, -41.076896) "></path>
                    <path d="M87.2131148,33.8651366 L93.7045868,27.3736645" id="Line-5-Copy" stroke-linecap="round" stroke-linejoin="round" transform="translate(90.458851, 30.619401) scale(1, -1) rotate(-315.000000) translate(-90.458851, -30.619401) "></path>
                </g>
            </g>
        </g>
    </g>
</svg>