<?xml version="1.0" encoding="utf-8"?>
<!-- Generator: Adobe Illustrator 24.1.0, SVG Export Plug-In . SVG Version: 6.00 Build 0)  -->
<svg  width="85px" height="104px"  version="1.1" id="Capa_1" xmlns="http://www.w3.org/2000/svg" xmlns:xlink="http://www.w3.org/1999/xlink" x="0px" y="0px"
	 viewBox="0 0 80 104" style="enable-background:new 0 0 80 104;" xml:space="preserve">
<style type="text/css">
	.st0{fill:#FFFFFF;}
</style>
<g>
	<g>
		<path class="st0" d="M12.54,90.32v12.32H9.13v-4.98H4.95v4.98H1.52V90.32h3.43v4.61h4.18v-4.61H12.54z"/>
		<path class="st0" d="M23.31,90.93c0.96,0.54,1.71,1.29,2.26,2.25c0.55,0.96,0.83,2.05,0.83,3.25c0,1.21-0.28,2.29-0.84,3.25
			c-0.56,0.96-1.31,1.71-2.27,2.25c-0.96,0.54-2.01,0.81-3.16,0.81s-2.2-0.27-3.17-0.81c-0.96-0.54-1.72-1.29-2.28-2.25
			c-0.56-0.96-0.84-2.05-0.84-3.25c0-1.21,0.28-2.29,0.84-3.25c0.56-0.96,1.32-1.71,2.28-2.25c0.96-0.54,2.02-0.81,3.17-0.81
			C21.3,90.12,22.35,90.39,23.31,90.93z M18.08,94.14c-0.5,0.56-0.75,1.33-0.75,2.31c0,0.95,0.25,1.71,0.75,2.28
			c0.5,0.57,1.18,0.85,2.05,0.85c0.86,0,1.54-0.28,2.04-0.85c0.5-0.57,0.75-1.33,0.75-2.28c0-0.97-0.25-1.74-0.74-2.31
			c-0.49-0.56-1.17-0.84-2.04-0.84S18.58,93.57,18.08,94.14z"/>
		<path class="st0" d="M41.99,90.37v12.27H38.6v-6.96l-2.28,6.96h-2.94l-2.28-6.96v6.96h-3.43V90.37h4.19l3.03,7.97l2.94-7.97H41.99
			z"/>
		<path class="st0" d="M53.52,97.38c0.42,0.55,0.64,1.18,0.64,1.9c0,1.07-0.35,1.89-1.06,2.48c-0.71,0.59-1.72,0.88-3.05,0.88h-6.09
			V90.32h5.95c1.24,0,2.21,0.27,2.92,0.82c0.7,0.55,1.05,1.33,1.05,2.37c0,0.73-0.19,1.34-0.57,1.84c-0.38,0.49-0.89,0.82-1.51,0.97
			C52.52,96.48,53.09,96.84,53.52,97.38z M47.38,95.24h1.72c0.86,0,1.29-0.36,1.29-1.08c0-0.74-0.44-1.11-1.31-1.11h-1.71V95.24z
			 M50.66,98.77c0-0.77-0.45-1.15-1.34-1.15h-1.93v2.26h1.93C50.21,99.89,50.66,99.52,50.66,98.77z"/>
		<path class="st0" d="M61.9,102.64l-2.49-4.54h-0.35v4.54h-3.43V90.32h5.41c0.99,0,1.82,0.17,2.51,0.51
			c0.69,0.34,1.21,0.82,1.56,1.42c0.35,0.6,0.52,1.28,0.52,2.04c0,0.86-0.24,1.6-0.71,2.24c-0.48,0.63-1.16,1.08-2.05,1.33l2.8,4.79
			H61.9z M59.07,95.8h1.69c0.95,0,1.43-0.43,1.43-1.29c0-0.41-0.12-0.72-0.36-0.96c-0.24-0.23-0.59-0.35-1.07-0.35h-1.69V95.8z"/>
		<path class="st0" d="M70.67,93.05v2.04h3.99v2.59h-3.99v2.23h4.51v2.73h-7.94V90.32h7.94v2.73H70.67z"/>
	</g>
	<g>
		<path class="st0" d="M63.54,66.79c-0.86-0.91-1.83-1.43-2.91-1.34c-5.01,0.42-4.98,14.91-4.78,18.51
			c0.22,3.99,3.42,1.18,8.69-0.54c-0.19-2.23,0.14-5.89-2.39-10.03C60.89,71.33,61.66,68.41,63.54,66.79z"/>
		<path class="st0" d="M70.79,67.31c-2.77-2.14-5.33-1.73-7.01-0.28c2.08,2.2,3.52,6.72,4.33,10.79c0.55,2.78,0.07,4.84-2.64,5.64
			c-0.23,0.07-0.46,0.14-0.68,0.21c0.11,1.3,0.4,2.11,1.53,2.25C71.16,85.93,76.06,71.38,70.79,67.31z"/>
		<path class="st0" d="M60.71,64.39c1.38-0.08,2.43-1.26,2.36-2.63c-0.08-1.38-1.26-2.43-2.63-2.36c-1.38,0.08-2.43,1.26-2.36,2.63
			C58.15,63.41,59.33,64.47,60.71,64.39z"/>
		<path class="st0" d="M68.48,64.57c1.38,0,2.5-1.12,2.5-2.5c0-1.38-1.12-2.5-2.5-2.5c-1.38,0-2.5,1.12-2.5,2.5
			C65.98,63.45,67.1,64.57,68.48,64.57z"/>
	</g>
	<path class="st0" d="M1.24,1.49h11.28c3.79,0,6.75,0.92,8.88,2.76c2.13,1.84,3.2,4.41,3.2,7.69c0,3.36-1.09,5.98-3.26,7.85
		c-2.17,1.87-5.2,2.8-9.09,2.8H9.17v6.34H1.24V1.49z M9.17,15.7h3.27c1.29,0,2.29-0.33,3.02-0.99c0.72-0.66,1.09-1.58,1.09-2.76
		c0-1.1-0.36-1.97-1.09-2.6c-0.72-0.63-1.73-0.95-3.02-0.95H9.17V15.7z"/>
	<path class="st0" d="M36.8,21.71h-3.43v7.22h-7.93V1.49h12.15c3.66,0,6.52,0.88,8.6,2.64c2.08,1.76,3.12,4.2,3.12,7.32
		c0,3.71-1.51,6.51-4.54,8.39l6.39,9.08h-9.59L36.8,21.71z M33.37,14.53h4.14c1.1,0,2.01-0.29,2.72-0.87
		c0.71-0.58,1.07-1.34,1.07-2.28c0-0.89-0.35-1.61-1.07-2.16c-0.71-0.55-1.62-0.83-2.72-0.83h-4.14V14.53z"/>
	<path class="st0" d="M19.5,50.01l0.04,7.47h-7.97l-0.04-7.47L1,30.03h8.8l5.68,10.82l5.76-10.82h8.8L19.5,50.01z"/>
	<path class="st0" d="M64.76,50.53c1.53,0,2.8-0.44,3.81-1.31c1.01-0.87,1.65-2.06,1.91-3.57h8.17c-0.24,3.71-1.62,6.71-4.14,9
		c-2.5,2.29-5.71,3.43-9.63,3.43c-4.24,0-7.71-1.34-10.42-4.04c-2.71-2.69-4.06-6.12-4.06-10.29c0-4.14,1.35-7.56,4.06-10.25
		c2.74-2.72,6.21-4.08,10.42-4.08c3.87,0,7.08,1.16,9.63,3.47c2.52,2.29,3.91,5.27,4.14,8.96h-8.17c-0.26-1.51-0.9-2.7-1.91-3.57
		c-1.01-0.87-2.28-1.31-3.81-1.31c-1.89,0-3.42,0.65-4.58,1.94c-1.13,1.27-1.7,2.88-1.7,4.84c0,1.96,0.56,3.58,1.7,4.84
		C61.34,49.88,62.87,50.53,64.76,50.53z"/>
	<path class="st0" d="M28.27,62.08c2.71-2.74,6.18-4.12,10.42-4.12c4.18,0,7.64,1.37,10.38,4.12c2.74,2.72,4.1,6.12,4.1,10.21
		c0,4.09-1.37,7.51-4.1,10.25c-2.74,2.72-6.19,4.08-10.38,4.08c-4.21,0-7.68-1.36-10.42-4.08c-2.71-2.74-4.06-6.16-4.06-10.25
		C24.21,68.17,25.56,64.77,28.27,62.08z M32.3,72.29c0,1.83,0.6,3.4,1.81,4.72c1.21,1.32,2.74,1.98,4.58,1.98
		c1.84,0,3.37-0.66,4.58-1.98c1.21-1.32,1.81-2.89,1.81-4.72c0-1.83-0.61-3.4-1.81-4.72c-1.21-1.32-2.74-1.98-4.58-1.98
		c-1.84,0-3.37,0.66-4.58,1.98C32.9,68.89,32.3,70.46,32.3,72.29z"/>
	<g>
		<path class="st0" d="M64.86,29.42c-0.58,0-1.14,0.02-1.69,0.07c0.39,0.03,0.79,0.04,1.19,0.04c0.57,0,1.12-0.03,1.66-0.08
			C65.65,29.44,65.26,29.42,64.86,29.42z"/>
		<path class="st0" d="M74.75,5c-2.74-2.74-6.19-4.12-10.38-4.12c-4.24,0-7.71,1.37-10.42,4.12c-2.71,2.69-4.06,6.09-4.06,10.21
			c0,4.09,1.35,7.51,4.06,10.25c1.68,1.67,3.63,2.82,5.87,3.46c1.55-0.42,3.24-0.63,5.04-0.63c1.58,0,3.07,0.17,4.47,0.5
			c2.04-0.66,3.85-1.77,5.42-3.33c2.74-2.74,4.1-6.16,4.1-10.25C78.85,11.12,77.48,7.72,74.75,5z M68.95,19.93
			c-1.21,1.32-2.74,1.98-4.58,1.98c-1.84,0-3.37-0.66-4.58-1.98c-1.21-1.32-1.81-2.89-1.81-4.72c0-1.83,0.6-3.4,1.81-4.72
			c1.21-1.32,2.74-1.98,4.58-1.98c1.84,0,3.37,0.66,4.58,1.98c1.21,1.32,1.81,2.89,1.81,4.72C70.76,17.04,70.16,18.62,68.95,19.93z"
			/>
	</g>
	<polygon class="st0" points="50.87,36.85 50.87,30.03 30.04,30.03 30.04,57.47 50.87,57.47 50.87,50.65 37.97,50.65 37.97,47.06 
		49.02,47.06 49.02,40.52 37.97,40.52 37.97,36.85 	"/>
	<path class="st0" d="M31.37,58.57H1.17v7.06h7.97v20.38h7.97V65.63h7.29C25.88,62.6,28.33,60.12,31.37,58.57z"/>
</g>
</svg>
